<svg width="16" height="16" viewBox="0 0 16 16" fill="none" xmlns="http://www.w3.org/2000/svg">
<path d="M5.33382 14.6667C5.70201 14.6667 6.00049 14.3682 6.00049 14C6.00049 13.6318 5.70201 13.3333 5.33382 13.3333C4.96563 13.3333 4.66716 13.6318 4.66716 14C4.66716 14.3682 4.96563 14.6667 5.33382 14.6667Z" fill="white"/>
<path d="M12.6672 14.6667C13.0353 14.6667 13.3338 14.3682 13.3338 14C13.3338 13.6318 13.0353 13.3333 12.6672 13.3333C12.299 13.3333 12.0005 13.6318 12.0005 14C12.0005 14.3682 12.299 14.6667 12.6672 14.6667Z" fill="white"/>
<path d="M1.36719 1.3667H2.70052L4.47385 9.6467C4.53891 9.94994 4.70763 10.221 4.951 10.4133C5.19436 10.6055 5.49712 10.7069 5.80719 10.7H12.3272C12.6306 10.6995 12.9248 10.5956 13.1612 10.4053C13.3976 10.215 13.5619 9.94972 13.6272 9.65337L14.7272 4.70003H3.41385" fill="white"/>
<path d="M1.36719 1.3667H2.70052L4.47385 9.6467C4.53891 9.94994 4.70763 10.221 4.951 10.4133C5.19436 10.6055 5.49712 10.7069 5.80719 10.7H12.3272C12.6306 10.6995 12.9248 10.5956 13.1612 10.4053C13.3976 10.215 13.5619 9.94972 13.6272 9.65337L14.7272 4.70003H3.41385M6.00049 14C6.00049 14.3682 5.70201 14.6667 5.33382 14.6667C4.96563 14.6667 4.66716 14.3682 4.66716 14C4.66716 13.6318 4.96563 13.3333 5.33382 13.3333C5.70201 13.3333 6.00049 13.6318 6.00049 14ZM13.3338 14C13.3338 14.3682 13.0353 14.6667 12.6672 14.6667C12.299 14.6667 12.0005 14.3682 12.0005 14C12.0005 13.6318 12.299 13.3333 12.6672 13.3333C13.0353 13.3333 13.3338 13.6318 13.3338 14Z" stroke="#020617" stroke-linecap="round" stroke-linejoin="round"/>
</svg>
