<svg width="10" height="9" viewBox="0 0 10 9" fill="none" xmlns="http://www.w3.org/2000/svg">
<path d="M0.746331 5.76878L0.746337 5.76879L2.86398 7.92879C2.86398 7.92879 2.86398 7.92879 2.86399 7.9288C3.19785 8.26934 3.74333 8.26934 4.07719 7.9288C4.0772 7.92879 4.0772 7.92879 4.0772 7.92879L9.25365 2.6488C9.58212 2.31379 9.58212 1.77462 9.25365 1.4396C8.91979 1.09907 8.37435 1.09907 8.04049 1.4396L8.04048 1.43961L3.47059 6.10087L1.95955 4.55964C1.95955 4.55963 1.95954 4.55963 1.95954 4.55963C1.62568 4.21908 1.08019 4.21909 0.746331 4.55964C0.41789 4.89466 0.41789 5.43376 0.746331 5.76878Z" fill="white" stroke="white" stroke-linejoin="round"/>
</svg>
