<svg width="14" height="15" viewBox="0 0 14 15" fill="none" xmlns="http://www.w3.org/2000/svg">
<path d="M9 14V8.66669C9 8.48988 8.92976 8.32031 8.80474 8.19528C8.67971 8.07026 8.51014 8.00002 8.33333 8.00002H5.66667C5.48986 8.00002 5.32029 8.07026 5.19526 8.19528C5.07024 8.32031 5 8.48988 5 8.66669V14" fill="white"/>
<path d="M1 6.66667C0.999954 6.47271 1.04222 6.28108 1.12386 6.10514C1.20549 5.92921 1.32453 5.7732 1.47267 5.648L6.13933 1.64867C6.37999 1.44527 6.6849 1.33368 7 1.33368C7.3151 1.33368 7.62001 1.44527 7.86067 1.64867L12.5273 5.648C12.6755 5.7732 12.7945 5.92921 12.8761 6.10514C12.9578 6.28108 13 6.47271 13 6.66667V12.6667C13 13.0203 12.8595 13.3594 12.6095 13.6095C12.3594 13.8595 12.0203 14 11.6667 14H2.33333C1.97971 14 1.64057 13.8595 1.39052 13.6095C1.14048 13.3594 1 13.0203 1 12.6667V6.66667Z" fill="white"/>
<path d="M9 14V8.66669C9 8.48988 8.92976 8.32031 8.80474 8.19528C8.67971 8.07026 8.51014 8.00002 8.33333 8.00002H5.66667C5.48986 8.00002 5.32029 8.07026 5.19526 8.19528C5.07024 8.32031 5 8.48988 5 8.66669V14M1 6.66667C0.999954 6.47271 1.04222 6.28108 1.12386 6.10514C1.20549 5.92921 1.32453 5.7732 1.47267 5.648L6.13933 1.64867C6.37999 1.44527 6.6849 1.33368 7 1.33368C7.3151 1.33368 7.62001 1.44527 7.86067 1.64867L12.5273 5.648C12.6755 5.7732 12.7945 5.92921 12.8761 6.10514C12.9578 6.28108 13 6.47271 13 6.66667V12.6667C13 13.0203 12.8595 13.3594 12.6095 13.6095C12.3594 13.8595 12.0203 14 11.6667 14H2.33333C1.97971 14 1.64057 13.8595 1.39052 13.6095C1.14048 13.3594 1 13.0203 1 12.6667V6.66667Z" stroke="#020617" stroke-linecap="round" stroke-linejoin="round"/>
</svg>
