<svg width="16" height="14" viewBox="0 0 16 14" fill="none" xmlns="http://www.w3.org/2000/svg">
<path d="M10.6693 13V11.6667C10.6693 10.9594 10.3883 10.2811 9.88822 9.78105C9.38813 9.28095 8.70985 9 8.0026 9H4.0026C3.29536 9 2.61708 9.28095 2.11699 9.78105C1.61689 10.2811 1.33594 10.9594 1.33594 11.6667V13" fill="white"/>
<path d="M6.0026 6.33333C7.47536 6.33333 8.66927 5.13943 8.66927 3.66667C8.66927 2.19391 7.47536 1 6.0026 1C4.52984 1 3.33594 2.19391 3.33594 3.66667C3.33594 5.13943 4.52984 6.33333 6.0026 6.33333Z" fill="white"/>
<path d="M14.6693 12.9999V11.6666C14.6688 11.0757 14.4722 10.5018 14.1102 10.0348C13.7482 9.56783 13.2414 9.2343 12.6693 9.08659" fill="white"/>
<path d="M10.6693 1.08659C11.2429 1.23346 11.7513 1.56706 12.1144 2.0348C12.4774 2.50254 12.6745 3.07781 12.6745 3.66992C12.6745 4.26204 12.4774 4.83731 12.1144 5.30505C11.7513 5.77279 11.2429 6.10639 10.6693 6.25326" fill="white"/>
<path d="M10.6693 13V11.6667C10.6693 10.9594 10.3883 10.2811 9.88822 9.78105C9.38813 9.28095 8.70985 9 8.0026 9H4.0026C3.29536 9 2.61708 9.28095 2.11699 9.78105C1.61689 10.2811 1.33594 10.9594 1.33594 11.6667V13M14.6693 12.9999V11.6666C14.6688 11.0757 14.4722 10.5018 14.1102 10.0348C13.7482 9.56783 13.2414 9.2343 12.6693 9.08659M10.6693 1.08659C11.2429 1.23346 11.7513 1.56706 12.1144 2.0348C12.4774 2.50254 12.6745 3.07781 12.6745 3.66992C12.6745 4.26204 12.4774 4.83731 12.1144 5.30505C11.7513 5.77279 11.2429 6.10639 10.6693 6.25326M8.66927 3.66667C8.66927 5.13943 7.47536 6.33333 6.0026 6.33333C4.52984 6.33333 3.33594 5.13943 3.33594 3.66667C3.33594 2.19391 4.52984 1 6.0026 1C7.47536 1 8.66927 2.19391 8.66927 3.66667Z" stroke="#BEBEBE" stroke-linecap="round" stroke-linejoin="round"/>
</svg>
