<svg width="46" height="46" viewBox="0 0 46 46" fill="none" xmlns="http://www.w3.org/2000/svg">
<path d="M34.5 15.334C37.6756 15.334 40.25 12.7596 40.25 9.58398C40.25 6.40835 37.6756 3.83398 34.5 3.83398C31.3244 3.83398 28.75 6.40835 28.75 9.58398C28.75 12.7596 31.3244 15.334 34.5 15.334Z" stroke="white" stroke-width="2" stroke-linecap="round" stroke-linejoin="round"/>
<path d="M11.5 28.75C14.6756 28.75 17.25 26.1756 17.25 23C17.25 19.8244 14.6756 17.25 11.5 17.25C8.32436 17.25 5.75 19.8244 5.75 23C5.75 26.1756 8.32436 28.75 11.5 28.75Z" stroke="white" stroke-width="2" stroke-linecap="round" stroke-linejoin="round"/>
<path d="M34.5 42.166C37.6756 42.166 40.25 39.5917 40.25 36.416C40.25 33.2404 37.6756 30.666 34.5 30.666C31.3244 30.666 28.75 33.2404 28.75 36.416C28.75 39.5917 31.3244 42.166 34.5 42.166Z" stroke="white" stroke-width="2" stroke-linecap="round" stroke-linejoin="round"/>
<path d="M16.4609 25.8945L29.5518 33.5229" stroke="white" stroke-width="2" stroke-linecap="round" stroke-linejoin="round"/>
<path d="M29.5326 12.4766L16.4609 20.1049" stroke="white" stroke-width="2" stroke-linecap="round" stroke-linejoin="round"/>
</svg>
