<svg width="24" height="24" viewBox="0 0 24 24" fill="none" xmlns="http://www.w3.org/2000/svg">
<g clip-path="url(#clip0_2521_16139)">
<path d="M23.8919 6.37256C23.7734 6.23148 23.6072 6.13893 23.4249 6.11256C23.4796 5.98723 23.5279 5.85923 23.5699 5.72856C23.6165 5.58369 23.6179 5.42807 23.5739 5.28238C23.53 5.13669 23.4427 5.00781 23.3238 4.91286C23.2049 4.81792 23.0599 4.7614 22.9081 4.75081C22.7563 4.74021 22.6048 4.77605 22.4739 4.85356C21.9838 5.14485 21.4554 5.366 20.9039 5.51056C20.3005 4.99285 19.5621 4.65778 18.7751 4.54458C17.9882 4.43138 17.1853 4.54474 16.4604 4.87139C15.7356 5.19803 15.1188 5.72443 14.6823 6.38895C14.2459 7.05347 14.0077 7.8286 13.9959 8.62356C11.7771 8.29333 9.7623 7.14465 8.34789 5.40356C8.27134 5.30945 8.1731 5.23532 8.0616 5.18752C7.9501 5.13972 7.82867 5.11968 7.70772 5.12912C7.58678 5.13856 7.46993 5.1772 7.3672 5.24172C7.26447 5.30624 7.17892 5.39471 7.11789 5.49956C6.78016 6.08029 6.58738 6.73386 6.55587 7.40492C6.52436 8.07598 6.65506 8.74474 6.93689 9.35456C6.81187 9.41674 6.70669 9.51259 6.63319 9.63132C6.5597 9.75004 6.5208 9.88693 6.52089 10.0266V10.0696C6.52089 11.2526 7.01689 12.3386 7.82889 13.1066C7.77428 13.1981 7.73978 13.3001 7.72771 13.406C7.71564 13.5119 7.72627 13.6191 7.75889 13.7206C8.0909 14.7532 8.81129 15.6163 9.76789 16.1276C8.79567 16.5295 7.73636 16.6745 6.69189 16.5486C6.52325 16.5281 6.35265 16.5655 6.20803 16.6546C6.06341 16.7438 5.95334 16.8794 5.89584 17.0392C5.83833 17.1991 5.8368 17.3737 5.89149 17.5346C5.94618 17.6954 6.05386 17.8329 6.19689 17.9246C7.86706 18.9961 9.80757 19.5704 11.7919 19.5806L11.8579 19.5836C18.6669 19.5836 22.3659 13.9296 22.3659 9.07556V8.99556C22.9759 8.50408 23.5074 7.92238 23.9419 7.27056C24.0322 7.13539 24.0762 6.97453 24.0672 6.81221C24.0582 6.64989 23.9966 6.49489 23.8919 6.37056" fill="#0969DA"/>
</g>
<defs>
<clipPath id="clip0_2521_16139">
<rect width="24" height="24" fill="white"/>
</clipPath>
</defs>
</svg>
